<svg xmlns="http://www.w3.org/2000/svg" width="41" height="41" viewBox="0 0 41 41">
  <g id="fingerprint" transform="translate(0 -4.74)">
    <g id="Group_10" data-name="Group 10" transform="translate(0 4.74)">
      <g id="Group_9" data-name="Group 9" transform="translate(0 0)">
        <path id="Path_13" data-name="Path 13" d="M20.5,4.74A20.73,20.73,0,0,0,0,25.648,21.2,21.2,0,0,0,1.34,33.1a.76.76,0,0,0,.71.5.744.744,0,0,0,.27-.051.779.779,0,0,0,.439-1,19.626,19.626,0,0,1-1.24-6.9A19.2,19.2,0,0,1,20.5,6.289,19.2,19.2,0,0,1,39.481,25.648a.759.759,0,1,0,1.519,0A20.73,20.73,0,0,0,20.5,4.74Z" transform="translate(0 -4.74)" fill="#3fc4b0"/>
      </g>
    </g>
    <g id="Group_12" data-name="Group 12" transform="translate(3.087 8.599)">
      <g id="Group_11" data-name="Group 11" transform="translate(0 0)">
        <path id="Path_14" data-name="Path 14" d="M55.345,52.147a17.277,17.277,0,0,0-12.579,6A14.864,14.864,0,0,0,38.691,69.2l.084.867c.591,6,.59,6-.52,8.243-.077.156-.16.322-.247.5a.779.779,0,0,0,.338,1.035.741.741,0,0,0,.338.082.756.756,0,0,0,.677-.427c.086-.176.168-.34.244-.495,1.309-2.642,1.3-2.763.674-9.094l-.085-.866a13.309,13.309,0,0,1,3.687-9.871A15.766,15.766,0,0,1,55.345,53.69,15.313,15.313,0,0,1,70.491,69.125v3.859a.757.757,0,1,0,1.514,0V69.125A16.844,16.844,0,0,0,55.345,52.147Z" transform="translate(-37.929 -52.147)" fill="#3fc4b0"/>
      </g>
    </g>
    <g id="Group_14" data-name="Group 14" transform="translate(5.402 12.555)">
      <g id="Group_13" data-name="Group 13" transform="translate(0 0)">
        <path id="Path_15" data-name="Path 15" d="M86.634,100.472a13.078,13.078,0,0,0-17.95,12.2,47.642,47.642,0,0,0,.342,5.206c.414,3.916.642,6.073-2.314,8.043a.772.772,0,0,0,.856,1.284c3.732-2.488,3.406-5.578,2.992-9.49a46.43,46.43,0,0,1-.333-5.044,11.584,11.584,0,0,1,15.838-10.767.772.772,0,1,0,.569-1.435Z" transform="translate(-66.369 -99.554)" fill="#3fc4b0"/>
      </g>
    </g>
    <g id="Group_16" data-name="Group 16" transform="translate(26.717 14.856)">
      <g id="Group_15" data-name="Group 15" transform="translate(0 0)">
        <path id="Path_16" data-name="Path 16" d="M341.44,138.609a13.158,13.158,0,0,0-5.49-10.645.772.772,0,0,0-.9,1.255,11.611,11.611,0,0,1,4.845,9.419c0,.02,0,.04,0,.059.008.1.744,9.981-.751,15.96a.772.772,0,1,0,1.5.374C342.175,148.915,341.494,139.329,341.44,138.609Z" transform="translate(-334.729 -127.82)" fill="#3fc4b0"/>
      </g>
    </g>
    <g id="Group_18" data-name="Group 18" transform="translate(11.246 16.375)">
      <g id="Group_17" data-name="Group 17">
        <path id="Path_17" data-name="Path 17" d="M160.183,153.046a9.262,9.262,0,0,0-17.963,3.176.769.769,0,0,0,.006.1,50.479,50.479,0,0,1,0,11.371.772.772,0,1,0,1.528.218,51.052,51.052,0,0,0,.008-11.731,7.719,7.719,0,0,1,14.969-2.6.772.772,0,0,0,1.45-.529Z" transform="translate(-142.22 -146.961)" fill="#3fc4b0"/>
      </g>
    </g>
    <g id="Group_20" data-name="Group 20" transform="translate(12.811 20.273)">
      <g id="Group_19" data-name="Group 19">
        <path id="Path_18" data-name="Path 18" d="M168.925,194.369a5.413,5.413,0,0,0-5.407,5.4.753.753,0,0,0,0,.09c.015.128,1.462,12.887-2.178,17.983a.771.771,0,1,0,1.255.9c3.906-5.469,2.575-18,2.459-19.013a3.87,3.87,0,0,1,7.739.042v5.4a.772.772,0,1,0,1.544,0v-5.4A5.418,5.418,0,0,0,168.925,194.369Z" transform="translate(-161.198 -194.369)" fill="#3fc4b0"/>
      </g>
    </g>
    <g id="Group_22" data-name="Group 22" transform="translate(35.132 31.38)">
      <g id="Group_21" data-name="Group 21">
        <path id="Path_19" data-name="Path 19" d="M441.212,331.1a.774.774,0,0,0-.836.7l-.471,5.382a.771.771,0,0,0,.7.836c.023,0,.046,0,.068,0a.772.772,0,0,0,.768-.7l.471-5.382A.771.771,0,0,0,441.212,331.1Z" transform="translate(-439.902 -331.101)" fill="#3fc4b0"/>
      </g>
    </g>
    <g id="Group_24" data-name="Group 24" transform="translate(9.099 39.566)">
      <g id="Group_23" data-name="Group 23">
        <path id="Path_20" data-name="Path 20" d="M116.52,431.535a.772.772,0,0,0-1.07.214l-1.543,2.315a.772.772,0,1,0,1.284.856l1.543-2.315A.772.772,0,0,0,116.52,431.535Z" transform="translate(-113.776 -431.406)" fill="#3fc4b0"/>
      </g>
    </g>
    <g id="Group_26" data-name="Group 26" transform="translate(26.53 24.903)">
      <g id="Group_25" data-name="Group 25">
        <path id="Path_21" data-name="Path 21" d="M334.919,251.866a.772.772,0,1,0-1.509.323c.023.105,2.216,10.625-1.479,18.015a.772.772,0,1,0,1.381.69C337.246,263.025,335.016,252.318,334.919,251.866Z" transform="translate(-331.849 -251.256)" fill="#3fc4b0"/>
      </g>
    </g>
    <g id="Group_28" data-name="Group 28" transform="translate(18.959 24.105)">
      <g id="Group_27" data-name="Group 27">
        <path id="Path_22" data-name="Path 22" d="M239.326,242.361a.772.772,0,0,0-1.5.374,25.174,25.174,0,0,1-.755,12.688.772.772,0,1,0,1.464.488A26.377,26.377,0,0,0,239.326,242.361Z" transform="translate(-237.033 -241.777)" fill="#3fc4b0"/>
      </g>
    </g>
    <g id="Group_30" data-name="Group 30" transform="translate(16.682 40.337)">
      <g id="Group_29" data-name="Group 29">
        <path id="Path_23" data-name="Path 23" d="M211.192,440.94a.772.772,0,0,0-1,.43l-1.543,3.859a.772.772,0,1,0,1.433.573l1.543-3.859A.772.772,0,0,0,211.192,440.94Z" transform="translate(-208.59 -440.885)" fill="#3fc4b0"/>
      </g>
    </g>
    <g id="Group_32" data-name="Group 32" transform="translate(21.981 34.133)">
      <g id="Group_31" data-name="Group 31">
        <path id="Path_24" data-name="Path 24" d="M278.048,364.663h0a.785.785,0,0,0-.772.786,27.746,27.746,0,0,1-2.253,9.737.773.773,0,1,0,1.419.615,28.789,28.789,0,0,0,2.378-10.351A.784.784,0,0,0,278.048,364.663Z" transform="translate(-274.96 -364.663)" fill="#3fc4b0"/>
      </g>
    </g>
  </g>
</svg>
